# xmcd
#
# Track frame offsets:
#	150
#	13008
#	50308
#	80234
#	112709
#	143707
#	168593
#
# Disc length: 2574 seconds
#
# Revision: 0
# Processed by: cddbd v1.5.1PL0 Copyright (c) Steve Scherf et al.
# Submitted via: EasyCDDAExtractor 7.1.3.1
#
DISCID=520a0c07
DTITLE=Black Sabbath - Great Western Forum Los Angeles 06-01-99 Disc 1
DYEAR=1999
DGENRE=Hard Rock
TTITLE0=Sabbath Medley
TTITLE1=War Pigs
TTITLE2=NIB
TTITLE3=Fairies Wear Boots
TTITLE4=After Forever
TTITLE5=Electric Funeral
TTITLE6=Sweet Leaf
EXTD=
EXTT0=
EXTT1=
EXTT2=
EXTT3=
EXTT4=
EXTT5=
EXTT6=
PLAYORDER=
